<svg xmlns="http://www.w3.org/2000/svg" data-name="Layer 1" viewBox="0 0 64 80" x="0px" y="0px"><title>file format document</title><path d="M21.662,53.717l-1.356,2.772h-2.1l2.412-4.572L18.35,47.561h2.1l1.212,2.508,1.212-2.508h2.1l-2.268,4.356,2.412,4.572h-2.1Z"/><path d="M25.8,47.561H27.71v7.3h3.768v1.632H25.8Z"/><path d="M35.318,56.609a3.846,3.846,0,0,1-1.9-.516,3.009,3.009,0,0,1-.852-.678,3.991,3.991,0,0,1-.635-1.062l1.6-.7a4.5,4.5,0,0,0,.312.57,1.977,1.977,0,0,0,.385.438,1.631,1.631,0,0,0,.5.282,1.87,1.87,0,0,0,.641.1A2.5,2.5,0,0,0,35.858,55a1.285,1.285,0,0,0,.426-.162.828.828,0,0,0,.3-.312,1.043,1.043,0,0,0,.108-.5.877.877,0,0,0-.457-.744,5.89,5.89,0,0,0-1.211-.6,7.523,7.523,0,0,1-2.077-1.092,2.1,2.1,0,0,1-.72-1.692,2.191,2.191,0,0,1,.841-1.764,3.177,3.177,0,0,1,2.1-.7,3.552,3.552,0,0,1,1.9.516,2.869,2.869,0,0,1,.743.648,4.24,4.24,0,0,1,.589,1.008l-1.765.54a2.47,2.47,0,0,0-.545-.834A1.29,1.29,0,0,0,35.15,49a1.883,1.883,0,0,0-.39.042,1.286,1.286,0,0,0-.36.132.7.7,0,0,0-.366.642.612.612,0,0,0,.114.348,1.135,1.135,0,0,0,.391.324,8.045,8.045,0,0,0,1.3.576,6.217,6.217,0,0,1,1.824.972,2.161,2.161,0,0,1,.852,1.848,2.526,2.526,0,0,1-.84,2.028A3.586,3.586,0,0,1,35.318,56.609Z"/><path d="M42.338,53.717l-1.356,2.772h-2.1l2.412-4.572-2.268-4.356h2.1l1.212,2.508,1.212-2.508h2.1l-2.268,4.356,2.412,4.572h-2.1Z"/><rect x="18.661" y="11.645" width="13.003" height="4.002"/><rect x="33.664" y="29.652" width="11.675" height="4.002"/><rect x="33.664" y="23.65" width="11.675" height="4.002"/><rect x="18.661" y="17.647" width="13.003" height="4.002"/><path d="M53.84,17.73c-.02-.02-.04-.05-.06-.07a.484.484,0,0,0-.07-.08L39.42,3.29c-.02-.02-.05-.04-.07-.06s-.06-.05-.08-.07L39.12,3H14a4,4,0,0,0-4,4V57a4,4,0,0,0,4,4H50a4,4,0,0,0,4-4V17.88ZM39.71,6.41,50.59,17.29H41.71a2.006,2.006,0,0,1-2-2ZM16.661,22.65v-12a1,1,0,0,1,1-1h15a1,1,0,0,1,1,1V21.65H46.339a1,1,0,0,1,1,1V34.655a1,1,0,0,1-1,1H17.661a1,1,0,0,1-1-1ZM52,57a2.006,2.006,0,0,1-2,2H14a2.006,2.006,0,0,1-2-2V41.46H25.73l2.7,3.09a.981.981,0,0,0,.75.34H52Z"/><rect x="18.661" y="23.65" width="13.003" height="4.002"/><rect x="18.661" y="29.652" width="13.003" height="4.002"/><text x="0" y="79" fill="#000000" font-size="5px" font-weight="bold" font-family="'Helvetica Neue', Helvetica, Arial-Unicode, Arial, Sans-serif">Created by JunGSa</text><text x="0" y="84" fill="#000000" font-size="5px" font-weight="bold" font-family="'Helvetica Neue', Helvetica, Arial-Unicode, Arial, Sans-serif">from the Noun Project</text></svg>